<?xml version="1.0" standalone="no"?>
<!DOCTYPE svg PUBLIC "-//W3C//DTD SVG 20010904//EN"
 "http://www.w3.org/TR/2001/REC-SVG-20010904/DTD/svg10.dtd">
<svg version="1.0" xmlns="http://www.w3.org/2000/svg"
 width="2138.000000pt" height="2453.000000pt" viewBox="0 0 2138.000000 2453.000000"
 preserveAspectRatio="xMidYMid meet">

<g transform="translate(0.000000,2453.000000) scale(0.100000,-0.100000)"
fill="#000000" stroke="none">
<path d="M10561 24514 c-30 -8 -72 -23 -95 -33 -23 -11 -2336 -1344 -5141
-2964 -4721 -2725 -5105 -2949 -5165 -3008 -72 -70 -121 -153 -145 -244 -13
-53 -15 -698 -15 -5998 0 -5370 2 -5945 16 -6000 30 -115 101 -224 190 -289
78 -57 10245 -5923 10310 -5949 83 -33 261 -33 348 -1 32 12 2361 1351 5174
2974 3799 2194 5129 2966 5170 3003 70 63 127 150 152 233 20 64 20 107 20
6027 0 5925 0 5963 -20 6026 -11 35 -33 87 -49 115 -73 126 238 -58 -5251
3110 -2797 1615 -5106 2946 -5131 2959 -104 53 -256 69 -368 39z m400 -1118
c129 -74 2311 -1334 4849 -2799 2932 -1693 4622 -2675 4635 -2692 20 -26 20
-42 20 -5639 0 -5227 -1 -5614 -17 -5637 -11 -17 -563 -341 -1620 -951 -882
-510 -3065 -1770 -4852 -2802 -2588 -1494 -3257 -1876 -3284 -1876 -27 0
-1014 565 -4870 2791 -2995 1728 -4849 2804 -4869 2825 l-33 34 0 5611 c0
5204 1 5613 17 5639 9 17 55 50 112 83 53 31 2236 1291 4851 2801 3912 2259
4761 2746 4791 2746 28 0 88 -30 270 -134z"/>
<path d="M10285 20550 c-1095 -62 -2097 -307 -3064 -751 -1972 -906 -3542
-2596 -4295 -4623 -303 -815 -470 -1623 -517 -2501 -13 -240 -7 -788 11 -1015
129 -1639 696 -3132 1679 -4424 461 -605 1071 -1205 1684 -1654 2375 -1741
5476 -2096 8182 -937 1915 820 3469 2358 4314 4268 1003 2268 933 4895 -189
7102 -330 648 -713 1210 -1208 1770 -150 170 -531 549 -702 699 -1313 1151
-2915 1853 -4630 2031 -361 37 -942 53 -1265 35z m6180 -3700 c639 -797 1113
-1750 1370 -2755 136 -530 217 -1116 227 -1634 l2 -133 -1754 -1073 c-965
-590 -1756 -1072 -1756 -1071 -1 0 31 68 72 150 167 341 270 644 368 1086 30
136 1310 5441 1337 5545 9 33 13 37 22 25 7 -9 57 -72 112 -140z m-5468 -801
c1200 -98 2273 -751 2915 -1773 109 -173 258 -472 331 -666 390 -1026 311
-2192 -214 -3156 -556 -1020 -1555 -1737 -2691 -1929 -250 -42 -351 -50 -643
-50 -285 0 -395 8 -625 46 -924 151 -1758 643 -2355 1389 -85 106 -258 363
-327 485 -243 429 -395 889 -465 1405 -14 108 -18 202 -18 465 0 345 9 452 56
705 266 1406 1309 2550 2684 2945 231 66 531 120 775 138 109 8 460 6 577 -4z
m7033 -4471 c0 -18 -7 -91 -15 -163 -178 -1525 -814 -2931 -1841 -4075 -62
-69 -139 -151 -171 -183 l-59 -58 -1997 483 -1997 482 177 61 c346 120 609
248 938 456 221 139 4949 3028 4958 3029 4 0 7 -15 7 -32z"/>
</g>
</svg>
